<?xml version="1.0"?>
<svg width="176" height="32" xmlns="http://www.w3.org/2000/svg" xmlns:svg="http://www.w3.org/2000/svg">
 <defs>
  <filter color-interpolation-filters="sRGB" filterUnits="userSpaceOnUse" height="20.53" id="filter0_d_521_14075" width="5.37" x="7.42" y="6.24">
   <feFlood flood-opacity="0" result="BackgroundImageFix"/>
   <feColorMatrix in="SourceAlpha" result="hardAlpha" type="matrix" values="0 0 0 0 0 0 0 0 0 0 0 0 0 0 0 0 0 0 127 0"/>
   <feOffset dy="0.5"/>
   <feGaussianBlur stdDeviation="0.5"/>
   <feComposite in2="hardAlpha" operator="out"/>
   <feColorMatrix type="matrix" values="0 0 0 0 0 0 0 0 0 0 0 0 0 0 0 0 0 0 0.12 0"/>
   <feBlend in2="BackgroundImageFix"/>
   <feBlend in="SourceGraphic" in2="effect1_dropShadow_521_14075"/>
  </filter>
  <filter color-interpolation-filters="sRGB" filterUnits="userSpaceOnUse" height="13.79" id="filter1_d_521_14075" width="5.37" x="13.74" y="12.97">
   <feFlood flood-opacity="0" result="BackgroundImageFix"/>
   <feColorMatrix in="SourceAlpha" result="hardAlpha" type="matrix" values="0 0 0 0 0 0 0 0 0 0 0 0 0 0 0 0 0 0 127 0"/>
   <feOffset dy="0.5"/>
   <feGaussianBlur stdDeviation="0.5"/>
   <feComposite in2="hardAlpha" operator="out"/>
   <feColorMatrix type="matrix" values="0 0 0 0 0 0 0 0 0 0 0 0 0 0 0 0 0 0 0.12 0"/>
   <feBlend in2="BackgroundImageFix"/>
   <feBlend in="SourceGraphic" in2="effect1_dropShadow_521_14075"/>
  </filter>
  <filter color-interpolation-filters="sRGB" filterUnits="userSpaceOnUse" height="18" id="filter2_d_521_14075" width="5.37" x="20.05" y="8.76">
   <feFlood flood-opacity="0" result="BackgroundImageFix"/>
   <feColorMatrix in="SourceAlpha" result="hardAlpha" type="matrix" values="0 0 0 0 0 0 0 0 0 0 0 0 0 0 0 0 0 0 127 0"/>
   <feOffset dy="0.5"/>
   <feGaussianBlur stdDeviation="0.5"/>
   <feComposite in2="hardAlpha" operator="out"/>
   <feColorMatrix type="matrix" values="0 0 0 0 0 0 0 0 0 0 0 0 0 0 0 0 0 0 0.12 0"/>
   <feBlend in2="BackgroundImageFix"/>
   <feBlend in="SourceGraphic" in2="effect1_dropShadow_521_14075"/>
  </filter>
 </defs>
 <g class="layer">
  <title>Layer 1</title>
  <path d="m0,8.68c0,-4.8 4.01,-8.68 8.95,-8.68l16.11,0c4.94,0 8.95,3.89 8.95,8.68l0,15.63c0,4.8 -4.01,8.68 -8.95,8.68l-16.11,0c-4.94,0 -8.95,-3.89 -8.95,-8.68l0,-15.63z" fill="#3C50E0" id="svg_10"/>
  <g filter="url(#filter0_d_521_14075)" id="svg_11" transform="matrix(1 0 0 1 0 0)">
   <path d="m8.42,8.42c0,-0.93 0.76,-1.68 1.69,-1.68l0,0c0.93,0 1.68,0.75 1.68,1.68l0,15.16c0,0.93 -0.75,1.68 -1.68,1.68l0,0c-0.93,0 -1.69,-0.75 -1.69,-1.68l0,-15.16z" fill="white" id="svg_12"/>
  </g>
  <g filter="url(#filter1_d_521_14075)" id="svg_13" opacity="0.9">
   <path d="m14.74,15.16c0,-0.93 0.75,-1.69 1.68,-1.69l0,0c0.93,0 1.69,0.76 1.69,1.69l0,8.42c0,0.93 -0.76,1.68 -1.69,1.68l0,0c-0.93,0 -1.68,-0.75 -1.68,-1.68l0,-8.42z" fill="white" id="svg_14"/>
  </g>
  <g filter="url(#filter2_d_521_14075)" id="svg_15" opacity="0.7">
   <path d="m21.05,10.95c0,-0.93 0.76,-1.69 1.69,-1.69l0,0c0.93,0 1.68,0.76 1.68,1.69l0,12.63c0,0.93 -0.75,1.68 -1.68,1.68l0,0c-0.93,0 -1.69,-0.75 -1.69,-1.68l0,-12.63z" fill="white" id="svg_16"/>
  </g>
  <text fill="#000000" font-family="Helvetica" font-size="23" font-weight="bold" id="svg_21" letter-spacing="0" stroke-width="0" text-anchor="middle" transform="matrix(0.916027 0 0 1.12506 2.584 -3.4647)" x="111.26" xml:space="preserve" y="25.67">TopSalesWeb</text>
 </g>
</svg>